<svg xmlns="http://www.w3.org/2000/svg" viewBox="0 0 180 130">
  <path d="M60.5 108.98c-4.26-.89-7.77-1.63-7.79-1.65-.02-.02.85-5.2 1.93-11.51 1.09-6.31 1.95-11.5 1.91-11.52-.03-.02-3.18-.86-7-1.86-3.83-1-7.08-1.85-7.23-1.9-.15-.05-5.68 6.4-12.3 14.32a773.22 773.22 0 01-12.2 14.43c-.26.02-15.62-12.3-15.62-12.54 0-.11 5.52-6.78 12.26-14.82s12.36-14.97 12.49-15.4c.22-.79.21-.8-.9-.79-.61 0-5.93.3-11.81.67-5.89.36-11.13.66-11.65.66h-.95L.77 56.76C.29 51.08-.05 46.39 0 46.33c.06-.07 6.36-.48 13.99-.94 7.63-.45 14.05-.87 14.26-.93.22-.07-.47-.62-1.6-1.3-11.75-6.92-15.25-21.3-7.89-32.34C23.84 3.22 33.6-1.1 42.71.24c14.84 2.17 24.22 16.04 20.03 29.62a24.27 24.27 0 01-9.1 12.29c-.57.37-1 .72-.94.77.05.05 6.88-.32 15.18-.84 8.3-.51 15.43-.93 15.83-.93h.74v-9.09h1.81c4.06 0 7.46 1.52 10.77 4.8a18.85 18.85 0 014.79 7.56l.32 1 28.47.07 28.47.07-27.49 4.36a2287.7 2287.7 0 00-28.14 4.56c-.53.16-.7.48-.97 1.82-1 4.9-3.99 9.4-8.03 12.1a15.26 15.26 0 01-7.8 2.6l-2.2.16v-8.9h-1.18c-1.47 0-22.98 1.33-23.08 1.43-.04.04 3.77 1.08 8.47 2.3 4.7 1.23 8.68 2.32 8.85 2.43.22.14-.3 2.57-1.86 8.75-1.76 6.93-2.56 10.78-4.18 20.28-2.44 14.27-2.21 13.2-2.76 13.16-.24-.01-3.94-.75-8.2-1.63z" fill="red" fill-rule="evenodd"/>
</svg>
