<?xml version="1.0" encoding="UTF-8"?>

<svg version="1.2" baseProfile="tiny" width="297mm" height="210mm" viewBox="0 0 29700 21000" preserveAspectRatio="xMidYMid" fill-rule="evenodd" clip-path="url(#presentation_clip_path)" stroke-width="28.222" stroke-linejoin="round" xmlns="http://www.w3.org/2000/svg" xmlns:ooo="http://xml.openoffice.org/svg/export" xmlns:xlink="http://www.w3.org/1999/xlink" xml:space="preserve">
 <defs class="ClipPathGroup">
  <clipPath id="presentation_clip_path" clipPathUnits="userSpaceOnUse">
   <rect x="0" y="0" width="29700" height="21000"/>
  </clipPath>
 </defs>
 <defs class="TextShapeIndex">
  <g ooo:slide="id1" ooo:id-list="id3 id4 id5 id6 id7 id8 id9"/>
 </defs>
 <defs class="EmbeddedBulletChars">
  <g id="bullet-char-template(57356)" transform="scale(0.00048828125,-0.00048828125)">
   <path d="M 580,1141 L 1163,571 580,0 -4,571 580,1141 Z"/>
  </g>
  <g id="bullet-char-template(57354)" transform="scale(0.00048828125,-0.00048828125)">
   <path d="M 8,1128 L 1137,1128 1137,0 8,0 8,1128 Z"/>
  </g>
  <g id="bullet-char-template(10146)" transform="scale(0.00048828125,-0.00048828125)">
   <path d="M 174,0 L 602,739 174,1481 1456,739 174,0 Z M 1358,739 L 309,1346 659,739 1358,739 Z"/>
  </g>
  <g id="bullet-char-template(10132)" transform="scale(0.00048828125,-0.00048828125)">
   <path d="M 2015,739 L 1276,0 717,0 1260,543 174,543 174,936 1260,936 717,1481 1274,1481 2015,739 Z"/>
  </g>
  <g id="bullet-char-template(10007)" transform="scale(0.00048828125,-0.00048828125)">
   <path d="M 0,-2 C -7,14 -16,27 -25,37 L 356,567 C 262,823 215,952 215,954 215,979 228,992 255,992 264,992 276,990 289,987 310,991 331,999 354,1012 L 381,999 492,748 772,1049 836,1024 860,1049 C 881,1039 901,1025 922,1006 886,937 835,863 770,784 769,783 710,716 594,584 L 774,223 C 774,196 753,168 711,139 L 727,119 C 717,90 699,76 672,76 641,76 570,178 457,381 L 164,-76 C 142,-110 111,-127 72,-127 30,-127 9,-110 8,-76 1,-67 -2,-52 -2,-32 -2,-23 -1,-13 0,-2 Z"/>
  </g>
  <g id="bullet-char-template(10004)" transform="scale(0.00048828125,-0.00048828125)">
   <path d="M 285,-33 C 182,-33 111,30 74,156 52,228 41,333 41,471 41,549 55,616 82,672 116,743 169,778 240,778 293,778 328,747 346,684 L 369,508 C 377,444 397,411 428,410 L 1163,1116 C 1174,1127 1196,1133 1229,1133 1271,1133 1292,1118 1292,1087 L 1292,965 C 1292,929 1282,901 1262,881 L 442,47 C 390,-6 338,-33 285,-33 Z"/>
  </g>
  <g id="bullet-char-template(9679)" transform="scale(0.00048828125,-0.00048828125)">
   <path d="M 813,0 C 632,0 489,54 383,161 276,268 223,411 223,592 223,773 276,916 383,1023 489,1130 632,1184 813,1184 992,1184 1136,1130 1245,1023 1353,916 1407,772 1407,592 1407,412 1353,268 1245,161 1136,54 992,0 813,0 Z"/>
  </g>
  <g id="bullet-char-template(8226)" transform="scale(0.00048828125,-0.00048828125)">
   <path d="M 346,457 C 273,457 209,483 155,535 101,586 74,649 74,723 74,796 101,859 155,911 209,963 273,989 346,989 419,989 480,963 531,910 582,859 608,796 608,723 608,648 583,586 532,535 482,483 420,457 346,457 Z"/>
  </g>
  <g id="bullet-char-template(8211)" transform="scale(0.00048828125,-0.00048828125)">
   <path d="M -4,459 L 1135,459 1135,606 -4,606 -4,459 Z"/>
  </g>
 </defs>
 <defs class="TextEmbeddedBitmaps"/>
 <g>
  <g id="id2" class="Master_Slide">
   <g id="bg-id2" class="Background"/>
   <g id="bo-id2" class="BackgroundObjects"/>
  </g>
 </g>
 <g class="SlideGroup">
  <g>
   <g id="id1" class="Slide" clip-path="url(#presentation_clip_path)">
    <g class="Page">
     <g class="Group">
      <g class="com.sun.star.drawing.CustomShape">
       <g id="id3">
        <path fill="rgb(0,0,0)" stroke="none" d="M 8839,1800 C 10886,1800 12449,3363 12449,5410 12449,7457 10886,9020 8839,9020 6792,9020 5229,7457 5229,5410 5229,3363 6792,1800 8839,1800 Z M 5229,1800 L 5229,1800 Z M 12450,9021 L 12450,9021 Z"/>
        <path fill="none" stroke="rgb(0,0,0)" d="M 8839,1800 C 10886,1800 12449,3363 12449,5410 12449,7457 10886,9020 8839,9020 6792,9020 5229,7457 5229,5410 5229,3363 6792,1800 8839,1800 Z"/>
        <path fill="none" stroke="rgb(0,0,0)" d="M 5229,1800 L 5229,1800 Z"/>
        <path fill="none" stroke="rgb(0,0,0)" d="M 12450,9021 L 12450,9021 Z"/>
       </g>
      </g>
      <g class="com.sun.star.drawing.CustomShape">
       <g id="id4">
        <path fill="rgb(0,0,0)" stroke="none" d="M 9856,11584 L 2536,12103 2300,8742 16939,7705 17176,11066 9856,11584 Z"/>
        <path fill="none" stroke="rgb(0,0,0)" d="M 9856,11584 L 2536,12103 2300,8742 16939,7705 17176,11066 9856,11584 Z"/>
       </g>
      </g>
      <g class="com.sun.star.drawing.CustomShape">
       <g id="id5">
        <path fill="rgb(0,0,0)" stroke="none" d="M 3860,17676 L 2577,16563 8184,10099 10751,12325 5144,18789 3860,17676 Z"/>
        <path fill="none" stroke="rgb(0,0,0)" d="M 3860,17676 L 2577,16563 8184,10099 10751,12325 5144,18789 3860,17676 Z"/>
       </g>
      </g>
      <g class="com.sun.star.drawing.CustomShape">
       <g id="id6">
        <path fill="rgb(0,0,0)" stroke="none" d="M 8163,12599 L 8492,10932 14786,12174 14127,15507 7834,14265 8163,12599 Z"/>
        <path fill="none" stroke="rgb(0,0,0)" d="M 8163,12599 L 8492,10932 14786,12174 14127,15507 7834,14265 8163,12599 Z"/>
       </g>
      </g>
      <g class="com.sun.star.drawing.CustomShape">
       <g id="id7">
        <path fill="rgb(0,0,0)" stroke="none" d="M 13232,18157 L 11837,18084 12146,12095 14936,12241 14628,18230 13232,18157 Z"/>
        <path fill="none" stroke="rgb(0,0,0)" d="M 13232,18157 L 11837,18084 12146,12095 14936,12241 14628,18230 13232,18157 Z"/>
       </g>
      </g>
      <g class="com.sun.star.drawing.CustomShape">
       <g id="id8">
        <path fill="rgb(0,0,0)" stroke="none" d="M 16307,6372 L 16436,6356 16566,6348 16695,6346 16825,6353 16954,6365 17083,6385 17210,6413 17336,6447 17461,6489 17582,6537 17702,6591 17820,6653 17934,6720 18045,6795 18153,6875 18257,6961 18357,7053 18452,7150 18543,7251 18629,7359 18711,7471 18787,7587 18857,7707 18923,7831 18982,7959 19036,8089 19084,8222 19126,8358 19162,8496 19190,8636 19214,8777 19230,8920 19240,9063 19243,9207 19240,9350 19230,9494 19215,9636 19192,9777 19164,9917 19128,10055 19087,10191 19039,10325 18986,10456 18926,10584 18862,10708 18791,10828 18715,10945 18635,11058 18548,11165 18457,11268 18361,11365 18262,11457 18159,11544 18052,11625 17940,11699 17826,11767 17709,11830 17590,11885 17468,11934 17343,11975 17217,12010 17090,12038 16961,12059 16832,12073 16703,12079 16573,12079 16443,12071 16314,12056 16651,9213 16307,6372 Z M 14049,12071 L 14049,12071 Z M 19253,6354 L 19253,6354 Z"/>
        <path fill="none" stroke="rgb(0,0,0)" d="M 16307,6372 L 16436,6356 16566,6348 16695,6346 16825,6353 16954,6365 17083,6385 17210,6413 17336,6447 17461,6489 17582,6537 17702,6591 17820,6653 17934,6720 18045,6795 18153,6875 18257,6961 18357,7053 18452,7150 18543,7251 18629,7359 18711,7471 18787,7587 18857,7707 18923,7831 18982,7959 19036,8089 19084,8222 19126,8358 19162,8496 19190,8636 19214,8777 19230,8920 19240,9063 19243,9207 19240,9350 19230,9494 19215,9636 19192,9777 19164,9917 19128,10055 19087,10191 19039,10325 18986,10456 18926,10584 18862,10708 18791,10828 18715,10945 18635,11058 18548,11165 18457,11268 18361,11365 18262,11457 18159,11544 18052,11625 17940,11699 17826,11767 17709,11830 17590,11885 17468,11934 17343,11975 17217,12010 17090,12038 16961,12059 16832,12073 16703,12079 16573,12079 16443,12071 16314,12056 16651,9213 16307,6372 Z"/>
        <path fill="none" stroke="rgb(0,0,0)" d="M 14049,12071 L 14049,12071 Z"/>
        <path fill="none" stroke="rgb(0,0,0)" d="M 19253,6354 L 19253,6354 Z"/>
       </g>
      </g>
      <g class="com.sun.star.drawing.CustomShape">
       <g id="id9">
        <path fill="rgb(0,0,0)" stroke="none" d="M 27293,8517 L 18206,9465 18159,8801 27293,8517 Z M 27269,8185 L 27269,8185 Z M 18206,9465 L 18206,9465 Z"/>
        <path fill="none" stroke="rgb(0,0,0)" d="M 27293,8517 L 18206,9465 18159,8801 27293,8517 Z"/>
        <path fill="none" stroke="rgb(0,0,0)" d="M 27269,8185 L 27269,8185 Z"/>
        <path fill="none" stroke="rgb(0,0,0)" d="M 18206,9465 L 18206,9465 Z"/>
       </g>
      </g>
     </g>
    </g>
   </g>
  </g>
 </g>
</svg>